<?xml version="1.0" encoding="utf-8"?>
<!-- Generator: Adobe Illustrator 28.1.0, SVG Export Plug-In . SVG Version: 6.00 Build 0)  -->
<svg version="1.1" id="Layer_1" xmlns="http://www.w3.org/2000/svg" xmlns:xlink="http://www.w3.org/1999/xlink" x="0px" y="0px"
	 viewBox="0 0 9818.58 909.52" style="enable-background:new 0 0 9818.58 909.52;" xml:space="preserve">
<style type="text/css">
	.st0{fill:#E2E0E0;}
	.st1{fill:#4C4C4C;}
	.st2{font-family:'OpenSans-Bold';}
	.st3{font-size:42px;}
	.st4{fill:#999999;}
	.st5{fill:#EFEFEF;}
	.st6{font-family:'Lato-Regular';}
	.st7{font-size:28px;}
	.st8{fill:none;stroke:#999999;stroke-width:2;stroke-miterlimit:10;}
</style>
<path class="st0" d="M3198.25,888.25H1759.41c-6.6,0-12-5.4-12-12V37.36c0-6.6,5.4-12,12-12h1438.83c6.6,0,12,5.4,12,12v838.89
	C3210.25,882.85,3204.85,888.25,3198.25,888.25z"/>
<path class="st0" d="M1579.04,888.25H140.21c-6.6,0-12-5.4-12-12V37.36c0-6.6,5.4-12,12-12h1438.83c6.6,0,12,5.4,12,12v838.89
	C1591.04,882.85,1585.64,888.25,1579.04,888.25z"/>
<text transform="matrix(1 0 0 1 661.8481 84.714)" class="st1 st2 st3">Data Collection</text>
<path class="st4" d="M546.4,462.61H226.51c-6.6,0-12-5.4-12-12v-95.9c0-6.6,5.4-12,12-12H546.4c6.6,0,12,5.4,12,12v95.9
	C558.4,457.21,553,462.61,546.4,462.61z"/>
<text transform="matrix(1 0 0 1 273.8247 412.1115)" class="st5 st6 st7">Google Earth Web</text>
<g>
	<path class="st4" d="M546.4,779.47H226.51c-6.6,0-12-5.4-12-12v-95.9c0-6.6,5.4-12,12-12H546.4c6.6,0,12,5.4,12,12v95.9
		C558.4,774.07,553,779.47,546.4,779.47z"/>
	<text transform="matrix(1 0 0 1 244.7755 712.7798)"><tspan x="0" y="0" class="st5 st6 st7">Building Footprint data </tspan><tspan x="-2.04" y="33.6" class="st5 st6 st7">from Open Street Maps</tspan></text>
</g>
<g>
	<path class="st4" d="M992.4,462.61H672.51c-6.6,0-12-5.4-12-12v-95.9c0-6.6,5.4-12,12-12H992.4c6.6,0,12,5.4,12,12v95.9
		C1004.4,457.21,999,462.61,992.4,462.61z"/>
	<text transform="matrix(1 0 0 1 685.4688 412.1115)" class="st5 st6 st7">Automated Screenshots</text>
</g>
<g>
	<path class="st4" d="M1470.68,354.93h-319.89c-6.6,0-12-5.4-12-12v-95.9c0-6.6,5.4-12,12-12h319.89c6.6,0,12,5.4,12,12v95.9
		C1482.68,349.53,1477.28,354.93,1470.68,354.93z"/>
	<text transform="matrix(1 0 0 1 1170.917 290.5974)"><tspan x="0" y="0" class="st5 st6 st7">Capture latest imagery </tspan><tspan x="98.94" y="33.6" class="st5 st6 st7">(2023)</tspan></text>
</g>
<g>
	<path class="st4" d="M1470.67,556.81h-319.89c-6.6,0-12-5.4-12-12v-95.9c0-6.6,5.4-12,12-12h319.89c6.6,0,12,5.4,12,12v95.9
		C1482.67,551.41,1477.27,556.81,1470.67,556.81z"/>
	<text transform="matrix(1 0 0 1 1165.2314 492.4688)"><tspan x="0" y="0" class="st5 st6 st7">Capture earlier imagery </tspan><tspan x="104.62" y="33.6" class="st5 st6 st7">(2022)</tspan></text>
</g>
<g>
	<g>
		<line class="st8" x1="558.4" y1="402.66" x2="658.34" y2="402.66"/>
		<g>
			<polygon class="st4" points="651.71,410.84 650.35,409.37 657.57,402.66 650.35,395.95 651.71,394.48 660.51,402.66 			"/>
		</g>
	</g>
</g>
<g>
	<g>
		<polyline class="st8" points="1002.84,403.65 1064.68,403.65 1064.68,294.98 1135.07,294.98 		"/>
		<g>
			<polygon class="st4" points="1128.44,303.16 1127.08,301.7 1134.3,294.99 1127.08,288.27 1128.44,286.81 1137.24,294.99 			"/>
		</g>
	</g>
</g>
<g>
	<g>
		<polyline class="st8" points="1002.84,403.65 1064.68,403.65 1064.68,496.86 1135.07,496.86 		"/>
		<g>
			<polygon class="st4" points="1128.44,505.04 1127.08,503.57 1134.3,496.86 1127.08,490.14 1128.44,488.68 1137.24,496.86 			"/>
		</g>
	</g>
</g>
<text transform="matrix(1 0 0 1 2305.4709 97.8905)" class="st1 st2 st3">Data Processing</text>
<path class="st4" d="M2211.15,354.93h-319.89c-6.6,0-12-5.4-12-12v-95.9c0-6.6,5.4-12,12-12h319.89c6.6,0,12,5.4,12,12v95.9
	C2223.15,349.53,2217.75,354.93,2211.15,354.93z"/>
<text transform="matrix(1 0 0 1 1974.1421 304.4381)" class="st5 st6 st7">Align images</text>
<path class="st4" d="M2696.6,354.93h-319.89c-6.6,0-12-5.4-12-12v-95.9c0-6.6,5.4-12,12-12h319.89c6.6,0,12,5.4,12,12v95.9
	C2708.6,349.53,2703.2,354.93,2696.6,354.93z"/>
<text transform="matrix(1 0 0 1 2401.2908 304.4381)" class="st5 st6 st7">Geo-reference images</text>
<path class="st4" d="M3009.73,779.47h-319.89c-6.6,0-12-5.4-12-12v-95.9c0-6.6,5.4-12,12-12h319.89c6.6,0,12,5.4,12,12v95.9
	C3021.73,774.07,3016.33,779.47,3009.73,779.47z"/>
<text transform="matrix(1 0 0 1 2707.6082 728.9783)" class="st5 st6 st7">Extract building images</text>
<g>
	<g>
		<line class="st8" x1="1477.08" y1="290.6" x2="1877.1" y2="290.6"/>
		<g>
			<polygon class="st4" points="1870.47,298.78 1869.11,297.31 1876.33,290.6 1869.11,283.88 1870.47,282.42 1879.27,290.6 			"/>
		</g>
	</g>
</g>
<g>
	<g>
		<polyline class="st8" points="1482.68,496.86 1661.21,496.86 1662.52,290.6 1877.1,290.6 		"/>
		<g>
			<polygon class="st4" points="1870.47,298.78 1869.11,297.31 1876.33,290.6 1869.11,283.88 1870.47,282.42 1879.27,290.6 			"/>
		</g>
	</g>
</g>
<path class="st0" d="M4817.45,888.25H3378.62c-6.6,0-12-5.4-12-12V37.36c0-6.6,5.4-12,12-12h1438.83c6.6,0,12,5.4,12,12v838.89
	C4829.45,882.85,4824.05,888.25,4817.45,888.25z"/>
<text transform="matrix(1 0 0 1 3970.3813 97.8905)" class="st1 st2 st3">Annotations</text>
<path class="st0" d="M8055.86,888.25H6617.03c-6.6,0-12-5.4-12-12V37.36c0-6.6,5.4-12,12-12h1438.83c6.6,0,12,5.4,12,12v838.89
	C8067.86,882.85,8062.46,888.25,8055.86,888.25z"/>
<path class="st0" d="M6436.66,888.25H4997.82c-6.6,0-12-5.4-12-12V37.36c0-6.6,5.4-12,12-12h1438.83c6.6,0,12,5.4,12,12v838.89
	C6448.66,882.85,6443.26,888.25,6436.66,888.25z"/>
<path class="st0" d="M9675.07,888.25H8236.24c-6.6,0-12-5.4-12-12V37.36c0-6.6,5.4-12,12-12h1438.83c6.6,0,12,5.4,12,12v838.89
	C9687.07,882.85,9681.67,888.25,9675.07,888.25z"/>
<g>
	<g>
		<line class="st8" x1="558.4" y1="720.61" x2="2675.68" y2="720.61"/>
		<g>
			<polygon class="st4" points="2669.05,728.79 2667.69,727.32 2674.91,720.61 2667.69,713.9 2669.05,712.43 2677.85,720.61 			"/>
		</g>
	</g>
</g>
<g>
	<g>
		<line class="st8" x1="2222.83" y1="294.98" x2="2362.54" y2="294.98"/>
		<g>
			<polygon class="st4" points="2355.92,303.16 2354.55,301.7 2361.77,294.99 2354.55,288.27 2355.92,286.81 2364.71,294.99 			"/>
		</g>
	</g>
</g>
<g>
	<g>
		<polyline class="st8" points="2708.6,290.6 2850.15,290.6 2850.15,657.4 		"/>
		<g>
			<polygon class="st4" points="2841.98,650.78 2843.44,649.41 2850.15,656.64 2856.87,649.41 2858.33,650.78 2850.15,659.57 			"/>
		</g>
	</g>
</g>
<path class="st4" d="M3896.48,350.55h-319.89c-6.6,0-12-5.4-12-12v-95.9c0-6.6,5.4-12,12-12h319.89c6.6,0,12,5.4,12,12v95.9
	C3908.48,345.15,3903.08,350.55,3896.48,350.55z"/>
<text transform="matrix(1 0 0 1 3636.856 300.049)" class="st5 st6 st7">Annotation Tool</text>
<path class="st4" d="M4630.22,354.93h-319.89c-6.6,0-12-5.4-12-12v-95.9c0-6.6,5.4-12,12-12h319.89c6.6,0,12,5.4,12,12v95.9
	C4642.22,349.53,4636.82,354.93,4630.22,354.93z"/>
<text transform="matrix(1 0 0 1 4316.8579 304.4381)" class="st5 st6 st7">Label Damaged Buildings</text>
<path class="st4" d="M4630.23,642.21h-319.89c-6.6,0-12-5.4-12-12v-95.9c0-6.6,5.4-12,12-12h319.89c6.6,0,12,5.4,12,12v95.9
	C4642.23,636.81,4636.83,642.21,4630.23,642.21z"/>
<text transform="matrix(1 0 0 1 4388.0186 591.7177)" class="st5 st6 st7">Mark Craters</text>
<g>
	<path class="st4" d="M5453.71,354.93h-319.89c-6.6,0-12-5.4-12-12v-95.9c0-6.6,5.4-12,12-12h319.89c6.6,0,12,5.4,12,12v95.9
		C5465.71,349.53,5460.31,354.93,5453.71,354.93z"/>
	<text transform="matrix(1 0 0 1 5153.04 294.4895)" class="st5 st6 st7">Siamese Twin Network</text>
</g>
<path class="st4" d="M5893.78,354.93h-319.89c-6.6,0-12-5.4-12-12v-95.9c0-6.6,5.4-12,12-12h319.89c6.6,0,12,5.4,12,12v95.9
	C5905.78,349.53,5900.38,354.93,5893.78,354.93z"/>
<text transform="matrix(1 0 0 1 5640.8354 294.4895)" class="st5 st6 st7">Model Training</text>
<path class="st4" d="M6327.26,354.93h-319.89c-6.6,0-12-5.4-12-12v-95.9c0-6.6,5.4-12,12-12h319.89c6.6,0,12,5.4,12,12v95.9
	C6339.26,349.53,6333.86,354.93,6327.26,354.93z"/>
<text transform="matrix(1 0 0 1 6059.9688 294.4895)" class="st5 st6 st7">Model Evaluation</text>
<path class="st4" d="M5453.71,642.21h-319.89c-6.6,0-12-5.4-12-12v-95.9c0-6.6,5.4-12,12-12h319.89c6.6,0,12,5.4,12,12v95.9
	C5465.71,636.81,5460.31,642.21,5453.71,642.21z"/>
<text transform="matrix(1 0 0 1 5168.4966 582.2642)"><tspan x="0" y="0" class="st5 st6 st7">Crater Identification </tspan><tspan x="38.36" y="33.6" class="st5 st6 st7">Model (in dev)</tspan></text>
<path class="st4" d="M6327.26,780.56h-319.89c-6.6,0-12-5.4-12-12v-95.9c0-6.6,5.4-12,12-12h319.89c6.6,0,12,5.4,12,12v95.9
	C6339.26,775.16,6333.86,780.56,6327.26,780.56z"/>
<text transform="matrix(1 0 0 1 6064.0708 730.0632)" class="st5 st6 st7">Inference Engine</text>
<text transform="matrix(1 0 0 1 5560.2134 97.89)" class="st1 st2 st3">Model Training</text>
<text transform="matrix(1 0 0 1 7054.853 97.89)" class="st1 st2 st3">Prediction and Refinement</text>
<text transform="matrix(1 0 0 1 8694.0762 97.89)" class="st1 st2 st3">Output and Visualization</text>
<g>
	<path class="st4" d="M7113.86,464.89h-319.89c-6.6,0-12-5.4-12-12v-95.9c0-6.6,5.4-12,12-12h319.89c6.6,0,12,5.4,12,12v95.9
		C7125.86,459.49,7120.46,464.89,7113.86,464.89z"/>
	<text transform="matrix(1 0 0 1 6846.1279 414.3889)" class="st5 st6 st7">Initial Predictions</text>
</g>
<g>
	<path class="st4" d="M7837.21,464.89h-319.89c-6.6,0-12-5.4-12-12v-95.9c0-6.6,5.4-12,12-12h319.89c6.6,0,12,5.4,12,12v95.9
		C7849.21,459.49,7843.81,464.89,7837.21,464.89z"/>
	<text transform="matrix(1 0 0 1 7577.5825 414.3889)" class="st5 st6 st7">Annotation Tool</text>
</g>
<g>
	<path class="st4" d="M7837.21,780.56h-319.89c-6.6,0-12-5.4-12-12v-95.9c0-6.6,5.4-12,12-12h319.89c6.6,0,12,5.4,12,12v95.9
		C7849.21,775.16,7843.81,780.56,7837.21,780.56z"/>
	<text transform="matrix(1 0 0 1 7588.167 730.0632)" class="st5 st6 st7">Refined Labels</text>
</g>
<g>
	<path class="st4" d="M8746.33,526.87h-319.89c-6.6,0-12-5.4-12-12v-95.9c0-6.6,5.4-12,12-12h319.89c6.6,0,12,5.4,12,12v95.9
		C8758.33,521.47,8752.93,526.87,8746.33,526.87z"/>
	<text transform="matrix(1 0 0 1 8481.334 476.3768)" class="st5 st6 st7">GeoJSON Export</text>
</g>
<g>
	<path class="st4" d="M9467.05,526.87h-319.89c-6.6,0-12-5.4-12-12v-95.9c0-6.6,5.4-12,12-12h319.89c6.6,0,12,5.4,12,12v95.9
		C9479.05,521.47,9473.65,526.87,9467.05,526.87z"/>
	<text transform="matrix(1 0 0 1 9219.002 476.3768)" class="st5 st6 st7">Web Interface</text>
</g>
<g>
	<g>
		<polyline class="st8" points="3021.73,720.61 3293.69,719.52 3295,294.98 3562.42,294.98 		"/>
		<g>
			<polygon class="st4" points="3555.8,303.16 3554.43,301.7 3561.65,294.99 3554.43,288.27 3555.8,286.81 3564.59,294.99 			"/>
		</g>
	</g>
</g>
<g>
	<g>
		<line class="st8" x1="3847.21" y1="294.98" x2="4296.17" y2="294.98"/>
		<g>
			<polygon class="st4" points="4289.54,303.16 4288.18,301.7 4295.4,294.99 4288.18,288.27 4289.54,286.81 4298.34,294.99 			"/>
		</g>
	</g>
</g>
<g>
	<g>
		<line class="st8" x1="4471.6" y1="344.99" x2="4471.6" y2="520.15"/>
		<g>
			<polygon class="st4" points="4463.42,513.52 4464.88,512.15 4471.6,519.38 4478.31,512.15 4479.78,513.52 4471.6,522.31 			"/>
		</g>
	</g>
</g>
<g>
	<g>
		<line class="st8" x1="4642.22" y1="582.26" x2="5119.65" y2="582.26"/>
		<g>
			<polygon class="st4" points="5113.03,590.44 5111.66,588.98 5118.89,582.27 5111.66,575.55 5113.03,574.09 5121.82,582.27 			"/>
		</g>
	</g>
</g>
<g>
	<g>
		<line class="st8" x1="4642.23" y1="294.98" x2="5119.65" y2="294.98"/>
		<g>
			<polygon class="st4" points="5113.03,303.16 5111.66,301.7 5118.89,294.99 5111.66,288.27 5113.03,286.81 5121.82,294.99 			"/>
		</g>
	</g>
</g>
<g>
	<g>
		<line class="st8" x1="5465.71" y1="294.98" x2="5559.72" y2="294.98"/>
		<g>
			<polygon class="st4" points="5553.1,303.16 5551.73,301.7 5558.96,294.99 5551.73,288.27 5553.1,286.81 5561.89,294.99 			"/>
		</g>
	</g>
</g>
<g>
	<g>
		<line class="st8" x1="5905.78" y1="294.49" x2="5993.21" y2="294.49"/>
		<g>
			<polygon class="st4" points="5986.58,302.67 5985.22,301.2 5992.44,294.49 5985.22,287.78 5986.58,286.31 5995.38,294.49 			"/>
		</g>
	</g>
</g>
<g>
	<g>
		<line class="st8" x1="6167.32" y1="354.93" x2="6167.32" y2="658.49"/>
		<g>
			<polygon class="st4" points="6159.14,651.86 6160.6,650.5 6167.32,657.72 6174.03,650.5 6175.5,651.86 6167.32,660.66 			"/>
		</g>
	</g>
</g>
<g>
	<g>
		<polyline class="st8" points="6339.26,294.49 6375.5,294.98 6375.5,181.37 5717.24,181.37 5717.24,233.46 		"/>
		<g>
			<polygon class="st4" points="5709.06,226.83 5710.53,225.47 5717.24,232.69 5723.95,225.47 5725.42,226.83 5717.24,235.63 			"/>
		</g>
	</g>
</g>
<g>
	<g>
		<polyline class="st8" points="4642.23,294.98 4907.72,294.49 4909.03,720.61 5993.21,720.61 		"/>
		<g>
			<polygon class="st4" points="5986.58,728.79 5985.22,727.32 5992.44,720.61 5985.22,713.9 5986.58,712.43 5995.38,720.61 			"/>
		</g>
	</g>
</g>
<g>
	<g>
		<polyline class="st8" points="6339.26,720.61 6529.65,720.61 6530.97,404.94 6779.8,404.94 		"/>
		<g>
			<polygon class="st4" points="6773.17,413.12 6771.81,411.65 6779.03,404.94 6771.81,398.22 6773.17,396.76 6781.97,404.94 			"/>
		</g>
	</g>
</g>
<g>
	<g>
		<line class="st8" x1="7125.86" y1="404.94" x2="7503.15" y2="404.94"/>
		<g>
			<polygon class="st4" points="7496.52,413.12 7495.16,411.65 7502.38,404.94 7495.16,398.22 7496.52,396.76 7505.32,404.94 			"/>
		</g>
	</g>
</g>
<g>
	<g>
		<line class="st8" x1="7677.26" y1="464.89" x2="7677.26" y2="658.49"/>
		<g>
			<polygon class="st4" points="7669.08,651.86 7670.55,650.5 7677.26,657.72 7683.97,650.5 7685.44,651.86 7677.26,660.66 			"/>
		</g>
	</g>
</g>
<g>
	<g>
		<polyline class="st8" points="7849.21,720.61 8148.95,720.61 8150.27,466.92 8412.28,466.92 		"/>
		<g>
			<polygon class="st4" points="8405.65,475.1 8404.29,473.64 8411.51,466.93 8404.29,460.21 8405.65,458.75 8414.45,466.93 			"/>
		</g>
	</g>
</g>
<g>
	<g>
		<line class="st8" x1="8758.33" y1="466.92" x2="9132.99" y2="466.92"/>
		<g>
			<polygon class="st4" points="9126.36,475.1 9125,473.64 9132.22,466.93 9125,460.21 9126.36,458.75 9135.16,466.93 			"/>
		</g>
	</g>
</g>
</svg>
